HIERARCHY
ROOT Pelvis
{
	OFFSET 0.000000 0.000000 0.000000
	CHANNELS 6 Xposition Yposition Zposition Xrotation Yrotation Zrotation
	JOINT LeftUpLeg_virtual
	{
		OFFSET 0.000000 0.000000 0.000000
		CHANNELS 3 Xrotation Yrotation Zrotation
		JOINT LeftUpLeg
		{
			OFFSET 18.735201 -5.666702 -4.541200
			CHANNELS 3 Xrotation Yrotation Zrotation
			JOINT LeftLeg
			{
				OFFSET -0.021200 -31.938179 0.493100
				CHANNELS 3 Xrotation Yrotation Zrotation
				JOINT LeftFoot
				{
					OFFSET 0.021200 -31.938179 -4.336299
					CHANNELS 3 Xrotation Yrotation Zrotation
					JOINT LeftToeBase
					{
						OFFSET 0.943001 -26.722000 15.023500
						CHANNELS 3 Xrotation Yrotation Zrotation
						End Site
						{
							OFFSET 0 0 0
						}
					}
				}
			}
		}
	}
	JOINT RightUpLeg_virtual
	{
		OFFSET 0.000000 0.000000 0.000000
		CHANNELS 3 Xrotation Yrotation Zrotation
		JOINT RightUpLeg
		{
			OFFSET -18.735201 -5.666702 -4.541200
			CHANNELS 3 Xrotation Yrotation Zrotation
			JOINT RightLeg
			{
				OFFSET 0.018946 -31.938133 0.493100
				CHANNELS 3 Xrotation Yrotation Zrotation
				JOINT RightFoot
				{
					OFFSET -0.018946 -31.938126 -4.336299
					CHANNELS 3 Xrotation Yrotation Zrotation
					JOINT RightToeBase
					{
						OFFSET -0.943001 -26.722004 15.023500
						CHANNELS 3 Xrotation Yrotation Zrotation
						End Site
						{
							OFFSET 0 0 0
						}
					}
				}
			}
		}
	}
	JOINT Hips_virtual
	{
		OFFSET 0.000000 0.000000 0.000000
		CHANNELS 3 Xrotation Yrotation Zrotation
		JOINT Hips
		{
			OFFSET -0.000000 -0.000000 -0.000000
			CHANNELS 3 Xrotation Yrotation Zrotation
			JOINT Spine
			{
				OFFSET 0.000000 10.199997 -0.299500
				CHANNELS 3 Xrotation Yrotation Zrotation
				JOINT Spine1
				{
					OFFSET 0.000000 11.900002 -1.516600
					CHANNELS 3 Xrotation Yrotation Zrotation
					JOINT Spine2
					{
						OFFSET 0.000000 13.600006 -2.842500
						CHANNELS 3 Xrotation Yrotation Zrotation
						JOINT Neck_virtual
						{
							OFFSET 0.000000 0.000000 0.000000
							CHANNELS 3 Xrotation Yrotation Zrotation
							JOINT Neck
							{
								OFFSET 0.000000 9.624100 -2.890100
								CHANNELS 3 Xrotation Yrotation Zrotation
								JOINT Head
								{
									OFFSET 0.000000 14.068802 -1.351900
									CHANNELS 3 Xrotation Yrotation Zrotation
									End Site
									{
										OFFSET 0 0 0
									}
								}
							}
						}
						JOINT LeftShoulder_virtual
						{
							OFFSET 0.000000 0.000000 0.000000
							CHANNELS 3 Xrotation Yrotation Zrotation
							JOINT LeftShoulder
							{
								OFFSET 15.263000 10.923401 -0.547700
								CHANNELS 3 Xrotation Yrotation Zrotation
								JOINT LeftArm
								{
									OFFSET 25.438599 -2.830597 -13.032500
									CHANNELS 3 Xrotation Yrotation Zrotation
									JOINT LeftForeArm
									{
										OFFSET 29.960503 0.000000 0.000000
										CHANNELS 3 Xrotation Yrotation Zrotation
										JOINT LeftHand
										{
											OFFSET 27.849251 0.000000 0.000000
											CHANNELS 3 Xrotation Yrotation Zrotation
											End Site
											{
												OFFSET 0 0 0
											}
										}
									}
								}
							}
						}
						JOINT RightShoulder_virtual
						{
							OFFSET 0.000000 0.000000 0.000000
							CHANNELS 3 Xrotation Yrotation Zrotation
							JOINT RightShoulder
							{
								OFFSET -15.263000 10.923401 -0.547700
								CHANNELS 3 Xrotation Yrotation Zrotation
								JOINT RightArm
								{
									OFFSET -25.438599 -2.830597 -13.032500
									CHANNELS 3 Xrotation Yrotation Zrotation
									JOINT RightForeArm
									{
										OFFSET -29.960503 0.000000 0.000000
										CHANNELS 3 Xrotation Yrotation Zrotation
										JOINT RightHand
										{
											OFFSET -27.849251 0.000000 0.000000
											CHANNELS 3 Xrotation Yrotation Zrotation
											End Site
											{
												OFFSET 0 0 0
											}
										}
									}
								}
							}
						}
					}
				}
			}
		}
	}
}
MOTION
Frames: 5
Frame Time: 0.03333333
-0.194889 92.706314 2.462246 0.000000 0.000000 0.000000 -24.519766 -2.732001 -1.139353 7.964066 20.948231 5.462258 36.720436 5.327066 -10.189666 -25.315492 28.903742 9.728954 0.000000 0.000000 0.000000 -24.519766 -2.732001 -1.139353 27.308548 -15.331287 0.855835 25.070401 -10.490383 0.074617 -24.951265 -28.332011 0.650324 0.000000 0.000000 0.000000 -24.519766 -2.732001 -1.139353 0.000001 0.000000 0.000000 11.143632 -4.581596 -1.265095 3.545658 -2.400647 -0.151373 0.000000 0.000000 0.000000 3.557021 -2.388380 -0.108336 0.618092 0.256542 -0.523029 0.000000 0.000000 0.000000 3.557021 -2.388380 -0.108336 0.445072 -15.488175 -11.025446 -20.285399 3.054801 -36.773557 0.000027 -67.201938 0.000039 0.000000 0.000000 0.000000 3.557021 -2.388380 -0.108336 0.064830 14.691505 14.953770 -12.069988 -6.923741 61.446629 -0.000006 39.415430 0.000013 0.000000 0.000000 0.000000 
-1.078791 92.724548 2.875820 0.000000 0.000000 0.000000 -24.577290 -4.677320 -2.017745 4.686992 21.687782 8.291914 41.348012 5.433053 -10.081239 -22.944714 29.232359 8.129555 0.000000 0.000000 0.000000 -24.577290 -4.677320 -2.017745 27.392656 -14.563189 1.104574 24.923268 -10.256925 0.213169 -25.341061 -27.120755 0.017689 0.000000 0.000000 0.000000 -24.577290 -4.677320 -2.017745 0.000000 0.000000 0.000000 11.142702 -4.582490 -1.276503 3.545659 -2.400646 -0.151372 0.000000 0.000000 0.000000 3.557023 -2.388382 -0.108336 0.635371 0.254229 -0.500853 0.000000 0.000000 0.000000 3.557023 -2.388382 -0.108336 0.460828 -15.508030 -10.923491 -20.284320 3.109530 -36.878930 0.000085 -67.192881 0.000093 0.000000 0.000000 0.000000 3.557023 -2.388382 -0.108336 0.056287 14.633621 15.032355 -11.965737 -6.692803 61.317156 -0.000024 39.454072 0.000038 0.000000 0.000000 0.000000 
-1.995152 92.716705 3.299372 0.000000 0.000000 0.000000 -24.666243 -6.637063 -2.924287 0.556300 22.049517 11.443804 46.222130 5.414577 -9.810948 -19.597136 29.390495 7.655514 0.000000 0.000000 0.000000 -24.666243 -6.637063 -2.924287 27.503340 -13.843792 1.379846 24.805254 -10.195210 0.279134 -25.686682 -25.710529 -0.440626 0.000000 0.000000 0.000000 -24.666243 -6.637063 -2.924287 0.000002 0.000000 0.000000 11.142812 -4.590364 -1.274557 3.545659 -2.400645 -0.151373 0.000000 0.000000 0.000000 3.557022 -2.388383 -0.108336 0.657524 0.245896 -0.473604 0.000000 0.000000 0.000000 3.557022 -2.388383 -0.108336 0.472354 -15.517857 -10.848853 -20.272645 3.135297 -36.949223 0.000044 -67.183517 0.000040 0.000000 0.000000 0.000000 3.557022 -2.388383 -0.108336 0.054214 14.638965 15.044543 -11.849491 -6.498832 61.233957 -0.000009 39.468863 0.000009 0.000000 0.000000 0.000000 
-2.765950 92.702377 3.680874 0.000000 0.000000 0.000000 -24.787921 -8.610875 -3.859017 -3.419021 21.618358 14.357561 49.830171 4.937970 -9.182360 -15.198660 27.756335 6.976695 0.000000 0.000000 0.000000 -24.787921 -8.610875 -3.859017 27.457641 -13.225494 1.475835 24.865037 -10.128382 0.301613 -25.923664 -24.203402 -0.670646 0.000000 0.000000 0.000000 -24.787921 -8.610875 -3.859017 -0.000001 0.000000 0.000000 11.143841 -4.604488 -1.261307 3.545657 -2.400647 -0.151373 0.000000 0.000000 0.000000 3.557022 -2.388380 -0.108336 0.672997 0.228026 -0.436795 0.000000 0.000000 0.000000 3.557022 -2.388380 -0.108336 0.474332 -15.543180 -10.838168 -20.339588 3.221964 -37.004387 0.000041 -67.196029 0.000036 0.000000 0.000000 0.000000 3.557022 -2.388380 -0.108336 0.058780 14.667367 14.999022 -11.779098 -6.388079 61.227223 -0.000013 39.443431 0.000014 0.000000 0.000000 0.000000 
-3.331889 92.722969 4.043728 0.000000 0.000000 0.000000 -24.945109 -10.613644 -4.797476 -6.606340 19.904394 16.623752 52.564200 3.926556 -8.373742 -12.381565 20.468918 4.520439 0.000000 0.000000 0.000000 -24.945109 -10.613644 -4.797476 27.294542 -12.729782 1.307281 24.971452 -9.926729 0.301480 -25.984415 -22.680579 -0.707630 0.000000 0.000000 0.000000 -24.945109 -10.613644 -4.797476 -0.000001 0.000000 0.000000 11.143396 -4.613803 -1.266256 3.545658 -2.400648 -0.151373 0.000000 0.000000 0.000000 3.557023 -2.388381 -0.108336 0.674511 0.203820 -0.396576 0.000000 0.000000 0.000000 3.557023 -2.388381 -0.108336 0.465638 -15.590289 -10.898827 -20.505432 3.391266 -37.049449 0.000003 -67.235658 0.000017 0.000000 0.000000 0.000000 3.557023 -2.388381 -0.108336 0.066778 14.690999 14.928167 -11.757138 -6.341265 61.272377 0.000011 39.391139 -0.000023 0.000000 0.000000 0.000000 
